<svg xmlns="http://www.w3.org/2000/svg" baseProfile="full" width="32" height="32" xml:space="preserve"><path fill="#005bbc" d="M11.52 0h8.96C26.842 0 32 5.158 32 11.52v8.96C32 26.842 26.842 32 20.48 32h-8.96C5.158 32 0 26.842 0 20.48v-8.96C0 5.158 5.158 0 11.52 0Z"/><path fill="#FFF" d="M22.913 8.612c0-.76-1.098-.76-1.098 0v2.111c0 .845-.675 1.604-1.604 1.604h-.507c0-1.52-1.013-2.786-2.448-3.124.253-.337.338-.76.338-1.182v-.506c0-.676-1.014-.676-1.014 0v.591c0 1.35-2.11 1.35-2.11 0v-.591c0-.676-1.098-.676-1.098 0v.591c0 .338.085.76.338 1.097-1.435.338-2.449 1.605-2.449 3.124h-.506c-.929 0-1.604-.76-1.604-1.604v-2.11c0-.76-1.013-.76-1.013 0v2.11c0 1.435 1.097 2.617 2.617 2.617h.506v1.605H7.547c-.676 0-.676 1.013 0 1.013h3.714v1.604h-.506c-1.52 0-2.617 1.182-2.617 2.617v2.111c0 .76 1.013.76 1.013 0v-2.11c0-.845.675-1.52 1.604-1.52h.506c0 2.11 1.605 3.883 3.8 4.137-1.858-3.63.59-8.021 4.643-8.359V13.34h.507c1.52 0 2.702-1.181 2.702-2.617v-2.11Zm-2.702 6.84c-6.332 0-6.332 9.54 0 9.54s6.332-9.54 0-9.54Zm0 7.682c-.844 0-1.604-.422-2.11-1.013-.507-.506.253-1.182.759-.675 1.013 1.182 2.955.59 3.208-.929a1.826 1.826 0 0 0-2.786-1.857h.422c.676 0 .676 1.013 0 1.013H18.1c-.338 0-.59-.338-.506-.676v-1.435c0-.675 1.097-.675 1.097 0v.169c1.604-1.013 3.8-.254 4.306 1.604.591 1.857-.844 3.8-2.786 3.8Z"/></svg>